<?xml version="1.0" standalone="no"?>
<!DOCTYPE svg PUBLIC "-//W3C//DTD SVG 20010904//EN"
 "http://www.w3.org/TR/2001/REC-SVG-20010904/DTD/svg10.dtd">
<svg version="1.0" xmlns="http://www.w3.org/2000/svg"
 width="967.000000pt" height="305.000000pt" viewBox="0 0 967.000000 305.000000"
 preserveAspectRatio="xMidYMid meet">
<metadata>
Created by potrace 1.15, written by Peter Selinger 2001-2017
</metadata>
<g transform="translate(0.000000,305.000000) scale(0.100000,-0.100000)"
fill="#000000" stroke="none">
<path d="M488 2068 c-4 -927 -3 -933 17 -1026 33 -146 123 -317 212 -404 l39
-38 96 71 97 70 32 -17 c27 -14 36 -14 53 -4 19 12 20 12 7 -3 -12 -15 -10
-18 15 -27 16 -6 40 -15 54 -20 136 -52 379 -54 522 -4 74 25 168 68 168 76 0
5 6 8 13 8 6 0 26 12 42 26 17 14 24 22 16 18 -9 -5 -12 -3 -7 5 4 6 12 9 17
5 5 -3 18 5 29 18 11 13 19 19 20 15 0 -13 26 16 43 50 9 17 13 33 10 37 -4 3
-1 6 5 6 6 0 20 25 31 55 25 67 26 75 5 49 -8 -10 -12 -12 -8 -4 4 8 13 22 19
30 43 52 49 296 11 441 -28 108 -44 149 -59 149 -6 0 -7 3 -4 7 4 3 -7 31 -24
62 -69 121 -110 162 -371 363 -139 107 -257 196 -262 197 -4 0 -9 -38 -10 -86
l-1 -88 -59 -7 c-144 -18 -303 -81 -415 -163 l-62 -45 19 37 c41 81 93 228
107 301 24 123 17 292 -11 292 -8 0 -14 5 -14 11 0 5 5 7 10 4 15 -9 2 40 -22
88 -10 21 -23 35 -28 32 -5 -3 -7 0 -5 7 3 8 -9 27 -26 43 l-31 30 6 -25 c4
-17 1 -14 -9 8 -12 26 -30 40 -78 62 -54 24 -153 50 -194 50 -11 0 -13 -140
-15 -762z m827 -471 c0 -54 2 -97 4 -97 2 0 42 29 90 63 114 85 109 83 136 57
13 -12 27 -20 32 -17 4 2 22 -2 38 -9 l30 -14 -37 4 -36 4 28 -41 c92 -140
100 -348 18 -485 -15 -25 -18 -36 -9 -45 8 -8 11 -8 11 2 0 10 3 11 14 2 10
-8 16 -9 19 -1 3 6 4 5 3 -2 -2 -7 -10 -12 -20 -10 -9 2 -16 -2 -16 -8 0 -9
14 -14 33 -11 5 1 6 -2 3 -7 -8 -14 -51 -7 -52 9 0 8 -2 18 -2 24 -1 5 -23
-13 -49 -40 -70 -73 -93 -90 -164 -118 l-64 -26 -5 90 -5 91 -70 -53 c-38 -29
-71 -56 -73 -61 -2 -4 -9 -8 -16 -8 -7 0 -21 -9 -31 -20 -26 -29 -40 -25 -94
25 -85 79 -141 213 -141 334 1 214 144 400 351 455 30 8 59 13 64 12 6 -2 10
-44 10 -99z"/>
<path d="M2672 1734 c-24 -165 -67 -474 -97 -689 -30 -214 -55 -396 -55 -402
0 -10 54 -13 239 -13 371 0 537 24 658 96 139 82 215 232 199 388 -14 132 -79
199 -246 252 -8 3 10 15 44 29 145 59 218 148 232 282 13 124 -49 234 -161
288 -106 50 -159 57 -476 62 l-296 5 -41 -298z m545 51 c18 -3 46 -17 63 -31
26 -23 30 -32 30 -79 0 -140 -84 -205 -267 -205 -46 0 -83 4 -83 8 0 5 9 73
20 152 11 79 20 147 20 151 0 4 8 9 18 11 23 5 159 0 199 -7z m-42 -546 c85
-23 123 -93 105 -190 -19 -101 -84 -153 -210 -170 -83 -12 -196 -8 -194 6 1 6
12 90 25 188 l24 177 105 0 c58 0 123 -5 145 -11z"/>
<path d="M4249 1730 c-247 -39 -427 -226 -490 -510 -28 -128 -23 -316 10 -403
33 -84 89 -150 158 -183 51 -26 69 -29 153 -29 84 0 102 3 152 28 31 15 80 52
110 82 29 30 56 55 59 55 4 0 9 -10 13 -23 3 -12 21 -41 41 -64 47 -55 105
-77 188 -71 63 6 137 33 137 52 0 6 -7 45 -17 88 -16 75 -17 77 -47 80 -25 2
-32 8 -34 28 -1 14 20 182 48 374 27 192 50 359 50 371 0 17 -15 29 -68 53
-133 62 -331 92 -463 72z m201 -236 c7 -7 -46 -419 -65 -500 -7 -31 -61 -95
-106 -125 -51 -35 -99 -44 -143 -25 -58 24 -71 62 -70 201 1 223 73 392 189
447 31 15 56 18 113 15 40 -2 77 -8 82 -13z"/>
<path d="M5610 1734 c-91 -16 -216 -94 -275 -171 l-35 -46 0 92 0 91 -134 0
-134 0 -11 -77 c-78 -555 -131 -948 -131 -968 l0 -25 150 0 c112 0 152 3 155
13 2 6 23 140 45 297 45 312 49 325 142 447 64 84 160 116 188 63 16 -31 12
-81 -40 -453 -27 -197 -50 -360 -50 -362 0 -3 69 -5 154 -5 l154 0 6 28 c18
89 106 774 106 826 0 110 -40 185 -120 226 -37 19 -127 31 -170 24z"/>
<path d="M6521 1725 c-279 -52 -465 -300 -488 -647 -11 -174 31 -314 120 -395
68 -63 106 -76 217 -77 82 -1 102 2 150 25 31 14 73 41 94 60 l39 33 -6 -29
c-4 -17 -18 -115 -32 -220 -14 -104 -28 -205 -31 -222 l-6 -33 156 0 c86 0
156 3 156 8 0 4 43 311 95 682 52 371 95 684 95 696 0 16 -15 28 -68 52 -145
67 -346 95 -491 67z m229 -232 c4 -4 -9 -121 -30 -260 -41 -273 -42 -276 -119
-346 -49 -45 -109 -63 -155 -47 -67 22 -88 69 -88 200 1 208 77 395 185 449
35 18 55 21 121 17 43 -2 82 -8 86 -13z"/>
<path d="M7695 1730 c-183 -26 -336 -140 -420 -315 -54 -112 -74 -192 -81
-320 -10 -163 24 -271 114 -368 115 -123 343 -161 557 -93 81 26 212 97 208
114 -1 5 -25 47 -53 94 l-52 86 -76 -39 c-94 -49 -183 -66 -248 -50 -82 21
-119 60 -134 143 -7 36 -6 38 24 42 308 47 474 104 564 193 138 139 117 365
-44 459 -84 49 -234 72 -359 54z m153 -237 c26 -28 30 -89 8 -131 -18 -34 -62
-75 -103 -96 -67 -34 -233 -60 -233 -37 0 24 40 135 63 173 37 63 80 99 134
113 61 16 102 9 131 -22z"/>
<path d="M8780 1734 c-163 -27 -240 -64 -336 -160 -78 -77 -137 -182 -169
-299 -26 -96 -32 -292 -10 -371 35 -131 126 -231 250 -274 84 -30 236 -37 335
-16 79 16 280 108 280 128 0 8 -90 167 -105 186 -2 2 -25 -10 -51 -26 -72 -44
-140 -64 -219 -65 -81 -2 -126 18 -161 71 -21 30 -40 99 -31 109 3 2 49 11
103 19 304 45 496 141 554 277 29 67 32 164 7 229 -27 69 -110 142 -192 167
-62 19 -206 34 -255 25z m98 -219 c26 -7 52 -53 52 -90 0 -101 -122 -186 -287
-202 -74 -7 -74 -6 -42 89 40 120 106 193 189 209 35 7 47 6 88 -6z"/>
</g>
</svg>
